<svg width="174" height="49" viewBox="0 0 174 49" fill="none" xmlns="http://www.w3.org/2000/svg">
<path d="M11.688 11.36C12.664 11.568 13.448 12.056 14.04 12.824C14.632 13.576 14.928 14.44 14.928 15.416C14.928 16.824 14.432 17.944 13.44 18.776C12.464 19.592 11.096 20 9.336 20H1.488V3.152H9.072C10.784 3.152 12.12 3.544 13.08 4.328C14.056 5.112 14.544 6.176 14.544 7.52C14.544 8.512 14.28 9.336 13.752 9.992C13.24 10.648 12.552 11.104 11.688 11.36ZM5.592 9.968H8.28C8.952 9.968 9.464 9.824 9.816 9.536C10.184 9.232 10.368 8.792 10.368 8.216C10.368 7.64 10.184 7.2 9.816 6.896C9.464 6.592 8.952 6.44 8.28 6.44H5.592V9.968ZM8.616 16.688C9.304 16.688 9.832 16.536 10.2 16.232C10.584 15.912 10.776 15.456 10.776 14.864C10.776 14.272 10.576 13.808 10.176 13.472C9.792 13.136 9.256 12.968 8.568 12.968H5.592V16.688H8.616ZM29.9323 13.088C29.9323 13.472 29.9083 13.872 29.8603 14.288H20.5723C20.6363 15.12 20.9003 15.76 21.3643 16.208C21.8443 16.64 22.4283 16.856 23.1163 16.856C24.1403 16.856 24.8523 16.424 25.2523 15.56H29.6203C29.3963 16.44 28.9883 17.232 28.3963 17.936C27.8203 18.64 27.0923 19.192 26.2123 19.592C25.3323 19.992 24.3483 20.192 23.2603 20.192C21.9483 20.192 20.7803 19.912 19.7563 19.352C18.7323 18.792 17.9323 17.992 17.3563 16.952C16.7803 15.912 16.4923 14.696 16.4923 13.304C16.4923 11.912 16.7723 10.696 17.3323 9.656C17.9083 8.616 18.7083 7.816 19.7323 7.256C20.7563 6.696 21.9323 6.416 23.2603 6.416C24.5563 6.416 25.7083 6.688 26.7163 7.232C27.7243 7.776 28.5083 8.552 29.0683 9.56C29.6443 10.568 29.9323 11.744 29.9323 13.088ZM25.7323 12.008C25.7323 11.304 25.4923 10.744 25.0123 10.328C24.5323 9.912 23.9323 9.704 23.2123 9.704C22.5243 9.704 21.9403 9.904 21.4603 10.304C20.9963 10.704 20.7083 11.272 20.5963 12.008H25.7323ZM36.2014 2.24V20H32.0974V2.24H36.2014ZM38.3595 13.28C38.3595 11.904 38.6155 10.696 39.1275 9.656C39.6555 8.616 40.3675 7.816 41.2635 7.256C42.1595 6.696 43.1595 6.416 44.2635 6.416C45.2075 6.416 46.0315 6.608 46.7355 6.992C47.4555 7.376 48.0075 7.88 48.3915 8.504V6.608H52.4955V20H48.3915V18.104C47.9915 18.728 47.4315 19.232 46.7115 19.616C46.0075 20 45.1835 20.192 44.2395 20.192C43.1515 20.192 42.1595 19.912 41.2635 19.352C40.3675 18.776 39.6555 17.968 39.1275 16.928C38.6155 15.872 38.3595 14.656 38.3595 13.28ZM48.3915 13.304C48.3915 12.28 48.1035 11.472 47.5275 10.88C46.9675 10.288 46.2795 9.992 45.4635 9.992C44.6475 9.992 43.9515 10.288 43.3755 10.88C42.8155 11.456 42.5355 12.256 42.5355 13.28C42.5355 14.304 42.8155 15.12 43.3755 15.728C43.9515 16.32 44.6475 16.616 45.4635 16.616C46.2795 16.616 46.9675 16.32 47.5275 15.728C48.1035 15.136 48.3915 14.328 48.3915 13.304Z" fill="#EB20B2"/>
<path d="M55.0086 13.376C55.0086 12.032 55.2806 10.856 55.8246 9.848C56.3686 8.824 57.1126 8.032 58.0566 7.472C59.0166 6.912 60.0886 6.632 61.2726 6.632C62.2966 6.632 63.2486 6.872 64.1286 7.352C65.0086 7.816 65.6806 8.432 66.1446 9.2V2.24H68.3526V20H66.1446V17.528C65.7126 18.312 65.0726 18.96 64.2246 19.472C63.3766 19.968 62.3846 20.216 61.2486 20.216C60.0806 20.216 59.0166 19.928 58.0566 19.352C57.1126 18.776 56.3686 17.968 55.8246 16.928C55.2806 15.888 55.0086 14.704 55.0086 13.376ZM66.1446 13.4C66.1446 12.408 65.9446 11.544 65.5446 10.808C65.1446 10.072 64.6006 9.512 63.9126 9.128C63.2406 8.728 62.4966 8.528 61.6806 8.528C60.8646 8.528 60.1206 8.72 59.4486 9.104C58.7766 9.488 58.2406 10.048 57.8406 10.784C57.4406 11.52 57.2406 12.384 57.2406 13.376C57.2406 14.384 57.4406 15.264 57.8406 16.016C58.2406 16.752 58.7766 17.32 59.4486 17.72C60.1206 18.104 60.8646 18.296 61.6806 18.296C62.4966 18.296 63.2406 18.104 63.9126 17.72C64.6006 17.32 65.1446 16.752 65.5446 16.016C65.9446 15.264 66.1446 14.392 66.1446 13.4ZM74.2273 8.984C74.6113 8.232 75.1553 7.648 75.8593 7.232C76.5793 6.816 77.4513 6.608 78.4753 6.608V8.864H77.8993C75.4513 8.864 74.2273 10.192 74.2273 12.848V20H72.0433V6.848H74.2273V8.984ZM92.9964 12.92C92.9964 13.336 92.9724 13.776 92.9244 14.24H82.4124C82.4924 15.536 82.9324 16.552 83.7324 17.288C84.5484 18.008 85.5324 18.368 86.6844 18.368C87.6284 18.368 88.4124 18.152 89.0364 17.72C89.6764 17.272 90.1244 16.68 90.3804 15.944H92.7324C92.3804 17.208 91.6764 18.24 90.6204 19.04C89.5644 19.824 88.2524 20.216 86.6844 20.216C85.4364 20.216 84.3164 19.936 83.3244 19.376C82.3484 18.816 81.5804 18.024 81.0204 17C80.4604 15.96 80.1804 14.76 80.1804 13.4C80.1804 12.04 80.4524 10.848 80.9964 9.824C81.5404 8.8 82.3004 8.016 83.2764 7.472C84.2684 6.912 85.4044 6.632 86.6844 6.632C87.9324 6.632 89.0364 6.904 89.9964 7.448C90.9564 7.992 91.6924 8.744 92.2044 9.704C92.7324 10.648 92.9964 11.72 92.9964 12.92ZM90.7404 12.464C90.7404 11.632 90.5564 10.92 90.1884 10.328C89.8204 9.72 89.3164 9.264 88.6764 8.96C88.0524 8.64 87.3564 8.48 86.5884 8.48C85.4844 8.48 84.5404 8.832 83.7564 9.536C82.9884 10.24 82.5484 11.216 82.4364 12.464H90.7404ZM95.0633 13.376C95.0633 12.032 95.3353 10.856 95.8793 9.848C96.4233 8.824 97.1673 8.032 98.1113 7.472C99.0713 6.912 100.135 6.632 101.303 6.632C102.455 6.632 103.455 6.88 104.303 7.376C105.151 7.872 105.783 8.496 106.199 9.248V6.848H108.407V20H106.199V17.552C105.767 18.32 105.119 18.96 104.255 19.472C103.407 19.968 102.415 20.216 101.279 20.216C100.111 20.216 99.0553 19.928 98.1113 19.352C97.1673 18.776 96.4233 17.968 95.8793 16.928C95.3353 15.888 95.0633 14.704 95.0633 13.376ZM106.199 13.4C106.199 12.408 105.999 11.544 105.599 10.808C105.199 10.072 104.655 9.512 103.967 9.128C103.295 8.728 102.551 8.528 101.735 8.528C100.919 8.528 100.175 8.72 99.5033 9.104C98.8313 9.488 98.2953 10.048 97.8953 10.784C97.4953 11.52 97.2953 12.384 97.2953 13.376C97.2953 14.384 97.4953 15.264 97.8953 16.016C98.2953 16.752 98.8313 17.32 99.5033 17.72C100.175 18.104 100.919 18.296 101.735 18.296C102.551 18.296 103.295 18.104 103.967 17.72C104.655 17.32 105.199 16.752 105.599 16.016C105.999 15.264 106.199 14.392 106.199 13.4ZM127.914 6.608C128.938 6.608 129.85 6.824 130.65 7.256C131.45 7.672 132.082 8.304 132.546 9.152C133.01 10 133.242 11.032 133.242 12.248V20H131.082V12.56C131.082 11.248 130.754 10.248 130.098 9.56C129.458 8.856 128.586 8.504 127.482 8.504C126.346 8.504 125.442 8.872 124.77 9.608C124.098 10.328 123.762 11.376 123.762 12.752V20H121.602V12.56C121.602 11.248 121.274 10.248 120.618 9.56C119.978 8.856 119.106 8.504 118.002 8.504C116.866 8.504 115.962 8.872 115.29 9.608C114.618 10.328 114.282 11.376 114.282 12.752V20H112.098V6.848H114.282V8.744C114.714 8.056 115.29 7.528 116.01 7.16C116.746 6.792 117.554 6.608 118.434 6.608C119.538 6.608 120.514 6.856 121.362 7.352C122.21 7.848 122.842 8.576 123.258 9.536C123.626 8.608 124.234 7.888 125.082 7.376C125.93 6.864 126.874 6.608 127.914 6.608Z" fill="#222222"/>
<path d="M0.774 39.032C0.774 38.024 0.978 37.142 1.386 36.386C1.794 35.618 2.352 35.024 3.06 34.604C3.78 34.184 4.578 33.974 5.454 33.974C6.318 33.974 7.068 34.16 7.704 34.532C8.34 34.904 8.814 35.372 9.126 35.936V34.136H10.782V44H9.126V42.164C8.802 42.74 8.316 43.22 7.668 43.604C7.032 43.976 6.288 44.162 5.436 44.162C4.56 44.162 3.768 43.946 3.06 43.514C2.352 43.082 1.794 42.476 1.386 41.696C0.978 40.916 0.774 40.028 0.774 39.032ZM9.126 39.05C9.126 38.306 8.976 37.658 8.676 37.106C8.376 36.554 7.968 36.134 7.452 35.846C6.948 35.546 6.39 35.396 5.778 35.396C5.166 35.396 4.608 35.54 4.104 35.828C3.6 36.116 3.198 36.536 2.898 37.088C2.598 37.64 2.448 38.288 2.448 39.032C2.448 39.788 2.598 40.448 2.898 41.012C3.198 41.564 3.6 41.99 4.104 42.29C4.608 42.578 5.166 42.722 5.778 42.722C6.39 42.722 6.948 42.578 7.452 42.29C7.968 41.99 8.376 41.564 8.676 41.012C8.976 40.448 9.126 39.794 9.126 39.05ZM30.9381 33.974C31.7901 33.974 32.5341 34.16 33.1701 34.532C33.8181 34.904 34.2981 35.372 34.6101 35.936V34.136H36.2661V44.216C36.2661 45.116 36.0741 45.914 35.6901 46.61C35.3061 47.318 34.7541 47.87 34.0341 48.266C33.3261 48.662 32.4981 48.86 31.5501 48.86C30.2541 48.86 29.1741 48.554 28.3101 47.942C27.4461 47.33 26.9361 46.496 26.7801 45.44H28.4001C28.5801 46.04 28.9521 46.52 29.5161 46.88C30.0801 47.252 30.7581 47.438 31.5501 47.438C32.4501 47.438 33.1821 47.156 33.7461 46.592C34.3221 46.028 34.6101 45.236 34.6101 44.216V42.146C34.2861 42.722 33.8061 43.202 33.1701 43.586C32.5341 43.97 31.7901 44.162 30.9381 44.162C30.0621 44.162 29.2641 43.946 28.5441 43.514C27.8361 43.082 27.2781 42.476 26.8701 41.696C26.4621 40.916 26.2581 40.028 26.2581 39.032C26.2581 38.024 26.4621 37.142 26.8701 36.386C27.2781 35.618 27.8361 35.024 28.5441 34.604C29.2641 34.184 30.0621 33.974 30.9381 33.974ZM34.6101 39.05C34.6101 38.306 34.4601 37.658 34.1601 37.106C33.8601 36.554 33.4521 36.134 32.9361 35.846C32.4321 35.546 31.8741 35.396 31.2621 35.396C30.6501 35.396 30.0921 35.54 29.5881 35.828C29.0841 36.116 28.6821 36.536 28.3821 37.088C28.0821 37.64 27.9321 38.288 27.9321 39.032C27.9321 39.788 28.0821 40.448 28.3821 41.012C28.6821 41.564 29.0841 41.99 29.5881 42.29C30.0921 42.578 30.6501 42.722 31.2621 42.722C31.8741 42.722 32.4321 42.578 32.9361 42.29C33.4521 41.99 33.8601 41.564 34.1601 41.012C34.4601 40.448 34.6101 39.794 34.6101 39.05ZM61.3541 38.69C61.3541 39.002 61.3361 39.332 61.3001 39.68H53.4161C53.4761 40.652 53.8061 41.414 54.4061 41.966C55.0181 42.506 55.7561 42.776 56.6201 42.776C57.3281 42.776 57.9161 42.614 58.3841 42.29C58.8641 41.954 59.2001 41.51 59.3921 40.958H61.1561C60.8921 41.906 60.3641 42.68 59.5721 43.28C58.7801 43.868 57.7961 44.162 56.6201 44.162C55.6841 44.162 54.8441 43.952 54.1001 43.532C53.3681 43.112 52.7921 42.518 52.3721 41.75C51.9521 40.97 51.7421 40.07 51.7421 39.05C51.7421 38.03 51.9461 37.136 52.3541 36.368C52.7621 35.6 53.3321 35.012 54.0641 34.604C54.8081 34.184 55.6601 33.974 56.6201 33.974C57.5561 33.974 58.3841 34.178 59.1041 34.586C59.8241 34.994 60.3761 35.558 60.7601 36.278C61.1561 36.986 61.3541 37.79 61.3541 38.69ZM59.6621 38.348C59.6621 37.724 59.5241 37.19 59.2481 36.746C58.9721 36.29 58.5941 35.948 58.1141 35.72C57.6461 35.48 57.1241 35.36 56.5481 35.36C55.7201 35.36 55.0121 35.624 54.4241 36.152C53.8481 36.68 53.5181 37.412 53.4341 38.348H59.6621ZM81.6422 33.956C82.8422 33.956 83.8142 34.322 84.5582 35.054C85.3022 35.774 85.6742 36.818 85.6742 38.186V44H84.0542V38.42C84.0542 37.436 83.8082 36.686 83.3162 36.17C82.8242 35.642 82.1522 35.378 81.3002 35.378C80.4362 35.378 79.7462 35.648 79.2302 36.188C78.7262 36.728 78.4742 37.514 78.4742 38.546V44H76.8362V34.136H78.4742V35.54C78.7982 35.036 79.2362 34.646 79.7882 34.37C80.3522 34.094 80.9702 33.956 81.6422 33.956ZM101.058 39.05C101.058 38.03 101.262 37.142 101.67 36.386C102.078 35.618 102.642 35.024 103.362 34.604C104.094 34.184 104.928 33.974 105.864 33.974C107.076 33.974 108.072 34.268 108.852 34.856C109.644 35.444 110.166 36.26 110.418 37.304H108.654C108.486 36.704 108.156 36.23 107.664 35.882C107.184 35.534 106.584 35.36 105.864 35.36C104.928 35.36 104.172 35.684 103.596 36.332C103.02 36.968 102.732 37.874 102.732 39.05C102.732 40.238 103.02 41.156 103.596 41.804C104.172 42.452 104.928 42.776 105.864 42.776C106.584 42.776 107.184 42.608 107.664 42.272C108.144 41.936 108.474 41.456 108.654 40.832H110.418C110.154 41.84 109.626 42.65 108.834 43.262C108.042 43.862 107.052 44.162 105.864 44.162C104.928 44.162 104.094 43.952 103.362 43.532C102.642 43.112 102.078 42.518 101.67 41.75C101.262 40.982 101.058 40.082 101.058 39.05ZM134.419 34.136L128.479 48.644H126.787L128.731 43.892L124.753 34.136H126.571L129.667 42.128L132.727 34.136H134.419Z" fill="#222222"/>
<path d="M0 25L146 26V27L0 28V25Z" fill="#EB20B2"/>
<path fill-rule="evenodd" clip-rule="evenodd" d="M152.176 13.294L153.447 15.96L157.043 23.369L157.229 23.772C157.229 23.803 157.229 23.803 157.229 23.834C157.229 24.051 157.074 24.268 156.857 24.33C154.253 24.392 151.649 24.485 149.045 24.609L146.379 21.509C146.286 21.416 146.162 21.354 146.038 21.354H143.992C143.775 21.354 143.589 21.509 143.558 21.695L145.542 25.384V26.097H143.992C143.775 26.097 143.589 26.283 143.589 26.5C143.589 26.717 143.775 26.903 143.992 26.903H145.542V27.616L143.558 31.305C143.589 31.491 143.775 31.646 143.992 31.646H146.1C146.224 31.646 146.348 31.584 146.441 31.491L149.107 28.391C151.711 28.515 154.315 28.608 156.919 28.67C157.136 28.732 157.291 28.918 157.291 29.166C157.291 29.197 157.291 29.228 157.291 29.228L157.57 28.67L157.105 29.6L153.478 37.04L152.207 39.706C152.207 40.016 152.455 40.264 152.765 40.264H155.71C155.71 40.264 155.71 40.264 155.71 40.233C155.71 40.233 155.71 40.233 155.71 40.202L158.841 36.11L159.74 34.932C159.864 34.808 160.019 34.746 160.205 34.746H162.623C162.809 34.746 162.933 34.622 162.933 34.436V32.142C162.933 31.987 162.778 31.832 162.623 31.832H162.375C162.313 31.801 162.282 31.739 162.282 31.677L164.266 29.104C164.359 29.042 164.452 28.98 164.576 28.98C165.165 28.98 165.754 28.98 166.374 28.98C167.645 29.135 171.427 28.298 172.946 26.934C172.977 26.872 173.008 26.81 173.008 26.717C173.008 26.624 172.977 26.562 172.946 26.5C171.427 25.136 167.645 24.33 166.374 24.454C165.785 24.454 165.196 24.454 164.576 24.454C164.452 24.454 164.359 24.392 164.266 24.33L164.359 24.454H164.142H164.359L163.46 23.276L162.158 21.602L162.282 21.788C162.282 21.726 162.313 21.664 162.375 21.633H162.623C162.809 21.633 162.933 21.509 162.933 21.323V18.75C162.933 18.595 162.778 18.44 162.623 18.44H160.67C160.484 18.44 160.329 18.378 160.205 18.254L156.175 12.984C156.082 12.86 155.927 12.767 155.741 12.767H152.765C152.424 12.736 152.176 12.984 152.176 13.294ZM157.508 24.299H156.888H156.919H156.95H156.981H157.012H157.043H157.105H157.508H157.632H157.508ZM164.793 28.763H165.01H164.793H164.607H164.793ZM158.221 24.299C158.407 24.299 158.593 24.299 158.779 24.299C158.593 24.268 158.407 24.299 158.221 24.299ZM162.654 24.237C162.84 24.237 163.026 24.237 163.212 24.237C163.026 24.237 162.84 24.237 162.654 24.237ZM162.282 28.763C162.127 28.763 161.972 28.763 161.817 28.763C161.972 28.763 162.127 28.763 162.282 28.763ZM162.654 28.763H163.212C163.026 28.763 162.84 28.763 162.654 28.763Z" fill="#EB20B2"/>
</svg>
