<svg width="34" height="34" viewBox="0 0 34 34" fill="none" xmlns="http://www.w3.org/2000/svg">
<path d="M0 17C0 26.3888 7.61116 34 17 34C26.3888 34 34 26.3888 34 17C34 7.61116 26.3888 0 17 0C7.61116 0 0 7.61116 0 17Z" fill="#1877F2"/>
<path d="M25.5 17C25.5 12.325 21.675 8.5 17 8.5C12.325 8.5 8.5 12.325 8.5 17C8.5 21.25 11.5812 24.7563 15.6187 25.3937V19.4437H13.4937V17H15.6187V15.0875C15.6187 12.9625 16.8938 11.7938 18.8063 11.7938C19.7625 11.7938 20.7188 12.0063 20.7188 12.0063V14.1313H19.6562C18.5938 14.1313 18.275 14.7688 18.275 15.4062V17H20.6125L20.1875 19.4437H18.1688V25.5C22.4188 24.8625 25.5 21.25 25.5 17Z" fill="white"/>
</svg>
