<svg width="34" height="34" viewBox="0 0 34 34" fill="none" xmlns="http://www.w3.org/2000/svg">
<path d="M0 17C0 26.3888 7.61116 34 17 34C26.3888 34 34 26.3888 34 17C34 7.61116 26.3888 0 17 0C7.61116 0 0 7.61116 0 17Z" fill="#F00073"/>
<path d="M16.9999 9.77502C19.3374 9.77502 19.6562 9.77502 20.6124 9.77502C21.4624 9.77502 21.8874 9.98752 22.2062 10.0938C22.6312 10.3063 22.9499 10.4125 23.2687 10.7313C23.5874 11.05 23.7999 11.3688 23.9062 11.7938C24.0124 12.1125 24.1186 12.5375 24.2249 13.3875C24.2249 14.3438 24.2249 14.5563 24.2249 17C24.2249 19.4438 24.2249 19.6563 24.2249 20.6125C24.2249 21.4625 24.0124 21.8875 23.9062 22.2063C23.6937 22.6313 23.5874 22.95 23.2687 23.2688C22.9499 23.5875 22.6312 23.8 22.2062 23.9063C21.8874 24.0125 21.4624 24.1188 20.6124 24.225C19.6562 24.225 19.4437 24.225 16.9999 24.225C14.5562 24.225 14.3437 24.225 13.3874 24.225C12.5374 24.225 12.1124 24.0125 11.7937 23.9063C11.3687 23.6938 11.0499 23.5875 10.7312 23.2688C10.4124 22.95 10.1999 22.6313 10.0937 22.2063C9.9874 21.8875 9.88115 21.4625 9.7749 20.6125C9.7749 19.6563 9.7749 19.4438 9.7749 17C9.7749 14.5563 9.7749 14.3438 9.7749 13.3875C9.7749 12.5375 9.9874 12.1125 10.0937 11.7938C10.3062 11.3688 10.4124 11.05 10.7312 10.7313C11.0499 10.4125 11.3687 10.2 11.7937 10.0938C12.1124 9.98752 12.5374 9.88127 13.3874 9.77502C14.3437 9.77502 14.6624 9.77502 16.9999 9.77502ZM16.9999 8.18127C14.5562 8.18127 14.3437 8.18127 13.3874 8.18127C12.4312 8.18127 11.7937 8.39378 11.2624 8.60628C10.7312 8.81877 10.1999 9.13753 9.66865 9.66878C9.1374 10.2 8.9249 10.625 8.60615 11.2625C8.39365 11.7938 8.2874 12.4313 8.18115 13.3875C8.18115 14.3438 8.18115 14.6625 8.18115 17C8.18115 19.4438 8.18115 19.6563 8.18115 20.6125C8.18115 21.5688 8.39365 22.2063 8.60615 22.7375C8.81865 23.2688 9.1374 23.8 9.66865 24.3313C10.1999 24.8625 10.6249 25.075 11.2624 25.3938C11.7937 25.6063 12.4312 25.7125 13.3874 25.8188C14.3437 25.8188 14.6624 25.8188 16.9999 25.8188C19.3374 25.8188 19.6562 25.8188 20.6124 25.8188C21.5687 25.8188 22.2062 25.6063 22.7374 25.3938C23.2687 25.1813 23.7999 24.8625 24.3312 24.3313C24.8624 23.8 25.0749 23.375 25.3937 22.7375C25.6062 22.2063 25.7124 21.5688 25.8186 20.6125C25.8186 19.6563 25.8186 19.3375 25.8186 17C25.8186 14.6625 25.8186 14.3438 25.8186 13.3875C25.8186 12.4313 25.6062 11.7938 25.3937 11.2625C25.1812 10.7313 24.8624 10.2 24.3312 9.66878C23.7999 9.13753 23.3749 8.92503 22.7374 8.60628C22.2062 8.39378 21.5687 8.28752 20.6124 8.18127C19.6562 8.18127 19.4437 8.18127 16.9999 8.18127Z" fill="white"/>
<path d="M16.9999 12.4313C14.4499 12.4313 12.4312 14.45 12.4312 17C12.4312 19.55 14.4499 21.5688 16.9999 21.5688C19.5499 21.5688 21.5687 19.55 21.5687 17C21.5687 14.45 19.5499 12.4313 16.9999 12.4313ZM16.9999 19.975C15.4062 19.975 14.0249 18.7 14.0249 17C14.0249 15.4063 15.2999 14.025 16.9999 14.025C18.5937 14.025 19.9749 15.3 19.9749 17C19.9749 18.5938 18.5937 19.975 16.9999 19.975Z" fill="white"/>
<path d="M21.6749 13.3875C22.2617 13.3875 22.7374 12.9118 22.7374 12.325C22.7374 11.7382 22.2617 11.2625 21.6749 11.2625C21.0881 11.2625 20.6124 11.7382 20.6124 12.325C20.6124 12.9118 21.0881 13.3875 21.6749 13.3875Z" fill="white"/>
</svg>
