<svg width="198" height="41" viewBox="0 0 198 41" fill="none" xmlns="http://www.w3.org/2000/svg">
<path fill-rule="evenodd" clip-rule="evenodd" d="M14.3643 0.0777754C13.3382 0.238164 11.6299 0.755138 11.2711 1.0137C10.9953 1.21239 11.0596 1.38554 12.8974 5.38586C13.9498 7.6768 15.5987 11.268 16.5615 13.3664C17.5244 15.4648 19.767 20.3513 21.5449 24.2253C23.3229 28.0993 25.5614 32.9768 26.5195 35.0642C27.4775 37.1516 28.3395 38.8899 28.4351 38.9271C28.668 39.0177 30.2317 38.3862 31.2812 37.7776C32.5287 37.0542 34.5928 34.9887 35.2681 33.788C36.3018 31.9504 36.5924 30.8111 36.6033 28.5542C36.6106 27.0232 36.5502 26.3732 36.3374 25.6927C35.1694 21.958 32.3621 19.2293 28.4105 17.9879C27.0126 17.5488 23.7958 17.416 22.3705 17.7387C21.7722 17.8742 21.5096 17.8938 21.6845 17.7901C22.4306 17.3472 23.7694 16.1398 24.3044 15.4273C25.6762 13.6 26.2862 11.8385 26.288 9.69787C26.2916 5.35564 23.2755 1.60932 18.7913 0.386229C17.5195 0.039332 15.5066 -0.100956 14.3643 0.0777754Z" fill="#333333"/>
<path d="M36.0687 13.8483C35.9595 13.8125 37.1998 11.2525 39.3092 7.16065C41.1889 3.51442 42.769 0.530131 42.8206 0.528811C42.9048 0.52661 43.6687 2.22955 46.9984 9.84441C55.8908 30.1809 60.0532 39.7998 59.9996 39.8898C59.9227 40.0192 40.8053 40.0412 40.6739 39.9121C40.6249 39.8638 40.877 39.4711 41.2344 39.0396C41.5917 38.6078 42.1605 37.7887 42.4986 37.2192C46.5713 30.3577 45.3378 21.9904 39.4222 16.3508C38.6116 15.5779 36.4701 13.9799 36.0687 13.8483Z" fill="#1263AD"/>
<path d="M2.14887 34.1404C4.31773 28.5761 7.2251 21.0901 8.29365 18.319C8.6125 17.492 8.91076 16.8151 8.9564 16.8149C9.00204 16.8149 9.48254 17.7887 10.0245 18.9792C10.5663 20.1697 12.9281 25.3267 15.2731 30.4392C17.618 35.5517 19.5366 39.7944 19.5366 39.8673C19.5366 39.945 15.4889 40 9.76829 40C2.35662 40 0 39.9582 0 39.8267C0 39.7313 0.966985 37.1726 2.14887 34.1404Z" fill="#1263AD"/>
<path d="M95.3261 9.4C93.9261 7.96 92.1261 7.2 89.9261 7.2C88.3661 7.2 86.9661 7.52 85.7661 8.12C84.5661 8.72 83.5661 9.56 82.8461 10.68C81.6861 8.36 79.6461 7.2 76.7261 7.2C75.2861 7.24 74.0861 7.48 73.1261 7.96C72.1661 8.44 71.3261 9.12 70.6461 10L70.1261 7.44H65.2061V28.04H70.8461V16.8C70.8461 15.28 71.2061 14.08 71.9261 13.2C72.6461 12.32 73.6461 11.84 74.8861 11.84C77.2861 11.84 78.4861 13.4 78.4861 16.52V28.04H84.1261V16.76C84.1261 15.24 84.4861 14.04 85.2461 13.16C85.9661 12.28 86.9661 11.84 88.2061 11.84C90.5661 11.84 91.7661 13.4 91.7661 16.52V28.04H97.4061V16.72C97.4061 13.32 96.6861 10.88 95.3261 9.4ZM121.988 23.24H121.348C120.868 23.24 120.548 23.16 120.348 22.96C120.108 22.8 120.028 22.44 120.028 21.92V14.68C120.028 12.28 119.228 10.4 117.628 9.12C116.028 7.84 113.788 7.2 110.908 7.2C108.108 7.2 105.908 7.8 104.228 8.96C102.548 10.12 101.588 11.76 101.428 13.84H106.868C106.988 13.08 107.388 12.48 108.068 12C108.708 11.56 109.588 11.32 110.628 11.32C111.788 11.32 112.708 11.6 113.428 12.16C114.108 12.72 114.468 13.44 114.468 14.36V15.36H110.388C107.308 15.36 104.948 15.96 103.348 17.16C101.748 18.36 100.948 20.04 100.948 22.2C100.948 24.12 101.628 25.64 103.028 26.68C104.428 27.72 106.268 28.24 108.588 28.24C110.108 28.24 111.428 27.96 112.548 27.32C113.628 26.72 114.548 25.84 115.308 24.64C115.228 26.88 116.508 28 119.108 28H121.988V23.24ZM114.468 19.12V19.52C114.428 20.96 113.988 22.08 113.148 22.92C112.268 23.76 111.108 24.16 109.668 24.16C108.708 24.16 107.988 23.96 107.428 23.52C106.868 23.12 106.628 22.52 106.628 21.8C106.628 20.96 106.948 20.32 107.588 19.84C108.228 19.36 109.148 19.12 110.348 19.12H114.468ZM137.49 7.44H136.53C135.01 7.44 133.77 7.72 132.89 8.24C131.97 8.76 131.21 9.52 130.61 10.52L130.09 7.44H124.97V28H130.61V17.92C130.61 16.28 130.97 14.96 131.73 14C132.45 13.04 133.65 12.56 135.25 12.56H137.49V7.44ZM157.569 8.48C156.129 7.64 154.489 7.2 152.649 7.2C150.089 7.2 148.009 8.16 146.449 10.04V-1.90735e-06H140.809V28H145.729L146.289 25.2C146.969 26.16 147.849 26.88 148.929 27.44C149.969 28 151.249 28.24 152.689 28.24C154.489 28.24 156.129 27.8 157.569 26.92C159.009 26.04 160.129 24.8 160.929 23.2C161.729 21.6 162.169 19.76 162.169 17.68C162.169 15.56 161.729 13.72 160.929 12.12C160.129 10.52 159.009 9.32 157.569 8.48ZM155.049 22C154.089 23.12 152.889 23.64 151.369 23.64C149.849 23.64 148.609 23.12 147.729 22C146.809 20.92 146.369 19.48 146.369 17.68C146.369 15.92 146.809 14.52 147.729 13.44C148.609 12.36 149.849 11.8 151.369 11.8C152.889 11.8 154.089 12.36 155.049 13.44C155.969 14.56 156.449 15.96 156.449 17.72C156.449 19.48 155.969 20.92 155.049 22ZM166.581 12.2C165.701 13.8 165.301 15.64 165.301 17.76C165.301 19.88 165.741 21.72 166.621 23.32C167.501 24.92 168.781 26.12 170.461 26.96C172.141 27.84 174.101 28.24 176.421 28.24C178.181 28.24 179.741 27.96 181.101 27.32C182.461 26.68 183.541 25.84 184.381 24.72C185.181 23.64 185.701 22.4 185.941 21.04H180.381C180.141 22 179.621 22.76 178.861 23.24C178.101 23.72 177.141 23.96 176.021 23.96C174.581 23.96 173.421 23.56 172.621 22.68C171.781 21.84 171.301 20.68 171.181 19.16V19H186.101C186.181 18.44 186.261 17.8 186.261 17.08C186.221 15.08 185.741 13.36 184.861 11.88C183.981 10.4 182.741 9.24 181.141 8.44C179.541 7.64 177.741 7.2 175.661 7.2C173.581 7.2 171.781 7.64 170.221 8.52C168.661 9.4 167.461 10.6 166.581 12.2ZM180.621 15.32H171.301C171.461 14.12 171.941 13.2 172.781 12.48C173.621 11.76 174.661 11.4 175.901 11.4C177.181 11.4 178.221 11.76 179.061 12.44C179.901 13.12 180.421 14.08 180.621 15.32ZM190.144 -1.90735e-06V28H195.784V-1.90735e-06H190.144Z" fill="#1263AD"/>
<path d="M65.9531 35.72L64.4831 35.7C64.4831 36.15 64.6131 36.55 64.8631 36.91C65.1031 37.27 65.4431 37.56 65.8831 37.76C66.3231 37.96 66.8231 38.06 67.3831 38.06C67.9031 38.06 68.3631 37.97 68.7831 37.77C69.2031 37.58 69.5231 37.32 69.7631 36.98C69.9931 36.64 70.1131 36.26 70.1131 35.83C70.1131 35.39 70.0131 35.04 69.8131 34.78C69.6131 34.52 69.3631 34.32 69.0431 34.19C68.7231 34.06 68.3231 33.95 67.8631 33.86C67.4031 33.78 67.0631 33.7 66.8431 33.64C66.6231 33.58 66.4531 33.49 66.3331 33.39C66.2131 33.29 66.1531 33.14 66.1531 32.95C66.1531 32.69 66.2531 32.49 66.4531 32.35C66.6531 32.21 66.9131 32.14 67.2531 32.14C67.6131 32.14 67.9031 32.24 68.1231 32.42C68.3431 32.6 68.4631 32.84 68.5031 33.14H69.9731C69.9631 32.72 69.8431 32.35 69.6031 32.01C69.3631 31.68 69.0431 31.42 68.6331 31.23C68.2231 31.04 67.7631 30.94 67.2531 30.94C66.7531 30.94 66.3031 31.04 65.9031 31.22C65.5031 31.4 65.1931 31.65 64.9731 31.97C64.7531 32.29 64.6431 32.66 64.6431 33.06C64.6431 33.51 64.7331 33.87 64.9331 34.14C65.1331 34.41 65.3831 34.61 65.7031 34.75C66.0131 34.89 66.4031 35 66.8631 35.08C67.3231 35.18 67.6731 35.26 67.8931 35.32C68.1131 35.38 68.2931 35.47 68.4131 35.58C68.5331 35.69 68.6031 35.84 68.6031 36.02C68.6031 36.29 68.4831 36.5 68.2631 36.65C68.0431 36.8 67.7531 36.87 67.4031 36.87C66.9731 36.87 66.6331 36.77 66.3731 36.56C66.1131 36.35 65.9731 36.07 65.9531 35.72ZM71.7331 34.05V36.53C71.7331 37.51 72.2231 38 73.2031 38H74.3731V36.81H73.6431C73.4631 36.81 73.3331 36.77 73.2531 36.69C73.1731 36.61 73.1431 36.48 73.1431 36.3V34.05H74.3131V32.86H73.1431V31.42H71.7331V32.86H70.8831V34.05H71.7331ZM80.3075 32.86H78.8975V35.39C78.8975 35.87 78.7975 36.24 78.6075 36.5C78.4075 36.76 78.1375 36.89 77.7875 36.89C77.4475 36.89 77.1875 36.78 77.0275 36.54C76.8675 36.3 76.7875 35.95 76.7875 35.48V32.86H75.3775V35.65C75.3775 36.52 75.5675 37.14 75.9475 37.51C76.3275 37.88 76.8175 38.06 77.4175 38.06C77.7575 38.06 78.0575 38 78.2975 37.88C78.5375 37.76 78.7475 37.6 78.9275 37.38L79.0575 38H80.3075V32.86ZM86.9279 31H85.5179V33.5C85.1479 33.04 84.6279 32.8 83.9679 32.8C83.5079 32.8 83.0979 32.91 82.7379 33.13C82.3779 33.35 82.0879 33.65 81.8879 34.05C81.6879 34.45 81.5879 34.9 81.5879 35.42C81.5879 35.95 81.6879 36.41 81.8879 36.81C82.0879 37.21 82.3779 37.52 82.7379 37.74C83.0979 37.96 83.4979 38.06 83.9579 38.06C84.6279 38.06 85.1579 37.81 85.5579 37.29L85.6979 38H86.9279V31ZM85.1979 36.51C84.9679 36.78 84.6679 36.91 84.2879 36.91C83.9079 36.91 83.5979 36.78 83.3679 36.5C83.1379 36.23 83.0279 35.87 83.0279 35.43C83.0279 34.99 83.1379 34.64 83.3679 34.36C83.5979 34.09 83.9079 33.95 84.2879 33.95C84.6679 33.95 84.9679 34.09 85.1979 34.36C85.4179 34.64 85.5379 35 85.5379 35.44C85.5379 35.88 85.4179 36.24 85.1979 36.51ZM89.7009 30.95C89.5409 30.8 89.3509 30.72 89.1209 30.72C88.8809 30.72 88.6909 30.8 88.5309 30.95C88.3709 31.1 88.3009 31.29 88.3009 31.51C88.3009 31.74 88.3709 31.93 88.5309 32.08C88.6909 32.24 88.8809 32.31 89.1209 32.31C89.3509 32.31 89.5409 32.24 89.7009 32.08C89.8509 31.93 89.9309 31.74 89.9309 31.51C89.9309 31.29 89.8509 31.1 89.7009 30.95ZM88.4109 32.86V38H89.8209V32.86H88.4109ZM91.4235 34.05C91.2035 34.45 91.1035 34.91 91.1035 35.44C91.1035 35.97 91.2135 36.43 91.4335 36.83C91.6535 37.23 91.9735 37.53 92.3935 37.74C92.8135 37.96 93.3035 38.06 93.8835 38.06C94.3235 38.06 94.7135 37.99 95.0535 37.83C95.3935 37.67 95.6635 37.46 95.8735 37.18C96.0735 36.91 96.2035 36.6 96.2635 36.26H94.8735C94.8135 36.5 94.6835 36.69 94.4935 36.81C94.3035 36.93 94.0635 36.99 93.7835 36.99C93.4235 36.99 93.1335 36.89 92.9335 36.67C92.7235 36.46 92.6035 36.17 92.5735 35.79V35.75H96.3035C96.3235 35.61 96.3435 35.45 96.3435 35.27C96.3335 34.77 96.2135 34.34 95.9935 33.97C95.7735 33.6 95.4635 33.31 95.0635 33.11C94.6635 32.91 94.2135 32.8 93.6935 32.8C93.1735 32.8 92.7235 32.91 92.3335 33.13C91.9435 33.35 91.6435 33.65 91.4235 34.05ZM94.9335 34.83H92.6035C92.6435 34.53 92.7635 34.3 92.9735 34.12C93.1835 33.94 93.4435 33.85 93.7535 33.85C94.0735 33.85 94.3335 33.94 94.5435 34.11C94.7535 34.28 94.8835 34.52 94.9335 34.83ZM98.725 36.29H97.385C97.405 36.84 97.645 37.27 98.095 37.59C98.535 37.91 99.115 38.06 99.835 38.06C100.295 38.06 100.695 38 101.045 37.86C101.395 37.72 101.665 37.53 101.865 37.27C102.065 37.02 102.165 36.73 102.165 36.39C102.165 35.87 101.975 35.5 101.605 35.28C101.235 35.06 100.705 34.91 100.015 34.83C99.685 34.8 99.455 34.77 99.315 34.74C99.175 34.72 99.055 34.67 98.975 34.61C98.885 34.55 98.845 34.46 98.845 34.34C98.845 34.18 98.925 34.04 99.085 33.94C99.245 33.84 99.465 33.79 99.735 33.79C100.015 33.79 100.255 33.86 100.435 33.98C100.615 34.1 100.725 34.26 100.745 34.45H102.085C102.045 33.93 101.815 33.53 101.385 33.23C100.955 32.94 100.395 32.79 99.695 32.78C99.255 32.78 98.875 32.85 98.545 32.99C98.205 33.13 97.945 33.33 97.765 33.59C97.585 33.85 97.495 34.14 97.495 34.47C97.495 34.81 97.585 35.07 97.765 35.27C97.945 35.47 98.185 35.62 98.485 35.71C98.785 35.81 99.155 35.88 99.615 35.94C99.945 35.98 100.185 36.02 100.335 36.05C100.475 36.08 100.595 36.13 100.675 36.19C100.755 36.26 100.795 36.36 100.795 36.49C100.795 36.67 100.705 36.81 100.535 36.91C100.355 37.01 100.125 37.05 99.825 37.05C99.505 37.05 99.255 36.98 99.055 36.84C98.855 36.7 98.745 36.52 98.725 36.29ZM107.746 30.95C107.586 30.8 107.396 30.72 107.166 30.72C106.926 30.72 106.736 30.8 106.576 30.95C106.416 31.1 106.346 31.29 106.346 31.51C106.346 31.74 106.416 31.93 106.576 32.08C106.736 32.24 106.926 32.31 107.166 32.31C107.396 32.31 107.586 32.24 107.746 32.08C107.896 31.93 107.976 31.74 107.976 31.51C107.976 31.29 107.896 31.1 107.746 30.95ZM106.456 32.86V38H107.866V32.86H106.456ZM113.778 33.36C113.388 32.99 112.898 32.8 112.298 32.8C111.918 32.8 111.608 32.87 111.358 32.99C111.098 33.11 110.888 33.28 110.708 33.5L110.578 32.86H109.348V38H110.758V35.37C110.758 34.93 110.858 34.58 111.058 34.33C111.258 34.09 111.538 33.96 111.908 33.96C112.598 33.96 112.948 34.41 112.948 35.29V38H114.358V35.21C114.358 34.35 114.158 33.74 113.778 33.36ZM121.497 31H118.837V38H121.627C122.477 38 123.137 37.83 123.607 37.48C124.067 37.13 124.307 36.65 124.307 36.03C124.307 35.55 124.157 35.18 123.877 34.91C123.597 34.65 123.197 34.48 122.677 34.41C123.117 34.33 123.457 34.16 123.697 33.89C123.937 33.63 124.057 33.28 124.057 32.84C124.057 32.26 123.827 31.8 123.387 31.48C122.937 31.16 122.307 31 121.497 31ZM120.337 33.88V32.18H121.537C121.857 32.18 122.107 32.26 122.287 32.41C122.467 32.57 122.557 32.77 122.557 33.03C122.557 33.29 122.467 33.5 122.287 33.65C122.107 33.81 121.857 33.88 121.537 33.88H120.337ZM120.337 36.81V35.04H121.637C121.987 35.04 122.267 35.12 122.467 35.28C122.667 35.44 122.767 35.66 122.767 35.94C122.767 36.22 122.667 36.43 122.467 36.58C122.267 36.74 121.997 36.81 121.637 36.81H120.337ZM125.812 34.05C125.592 34.45 125.492 34.91 125.492 35.44C125.492 35.97 125.602 36.43 125.822 36.83C126.042 37.23 126.362 37.53 126.782 37.74C127.202 37.96 127.692 38.06 128.272 38.06C128.712 38.06 129.102 37.99 129.442 37.83C129.782 37.67 130.052 37.46 130.262 37.18C130.462 36.91 130.592 36.6 130.652 36.26H129.262C129.202 36.5 129.072 36.69 128.882 36.81C128.692 36.93 128.452 36.99 128.172 36.99C127.812 36.99 127.522 36.89 127.322 36.67C127.112 36.46 126.992 36.17 126.962 35.79V35.75H130.692C130.712 35.61 130.732 35.45 130.732 35.27C130.722 34.77 130.602 34.34 130.382 33.97C130.162 33.6 129.852 33.31 129.452 33.11C129.052 32.91 128.602 32.8 128.082 32.8C127.562 32.8 127.112 32.91 126.722 33.13C126.332 33.35 126.032 33.65 125.812 34.05ZM129.322 34.83H126.992C127.032 34.53 127.152 34.3 127.362 34.12C127.572 33.94 127.832 33.85 128.142 33.85C128.462 33.85 128.722 33.94 128.932 34.11C129.142 34.28 129.272 34.52 129.322 34.83ZM132.003 31V38H133.413V31H132.003ZM139.955 36.81H139.795C139.675 36.81 139.595 36.79 139.545 36.74C139.485 36.7 139.465 36.61 139.465 36.48V34.67C139.465 34.07 139.265 33.6 138.865 33.28C138.465 32.96 137.905 32.8 137.185 32.8C136.485 32.8 135.935 32.95 135.515 33.24C135.095 33.53 134.855 33.94 134.815 34.46H136.175C136.205 34.27 136.305 34.12 136.475 34C136.635 33.89 136.855 33.83 137.115 33.83C137.405 33.83 137.635 33.9 137.815 34.04C137.985 34.18 138.075 34.36 138.075 34.59V34.84H137.055C136.285 34.84 135.695 34.99 135.295 35.29C134.895 35.59 134.695 36.01 134.695 36.55C134.695 37.03 134.865 37.41 135.215 37.67C135.565 37.93 136.025 38.06 136.605 38.06C136.985 38.06 137.315 37.99 137.595 37.83C137.865 37.68 138.095 37.46 138.285 37.16C138.265 37.72 138.585 38 139.235 38H139.955V36.81ZM138.075 35.78V35.88C138.065 36.24 137.955 36.52 137.745 36.73C137.525 36.94 137.235 37.04 136.875 37.04C136.635 37.04 136.455 36.99 136.315 36.88C136.175 36.78 136.115 36.63 136.115 36.45C136.115 36.24 136.195 36.08 136.355 35.96C136.515 35.84 136.745 35.78 137.045 35.78H138.075ZM144.131 32.86H143.891C143.511 32.86 143.201 32.93 142.981 33.06C142.751 33.19 142.561 33.38 142.411 33.63L142.281 32.86H141.001V38H142.411V35.48C142.411 35.07 142.501 34.74 142.691 34.5C142.871 34.26 143.171 34.14 143.571 34.14H144.131V32.86ZM150.101 32.86H148.691V35.39C148.691 35.87 148.591 36.24 148.401 36.5C148.201 36.76 147.931 36.89 147.581 36.89C147.241 36.89 146.981 36.78 146.821 36.54C146.661 36.3 146.581 35.95 146.581 35.48V32.86H145.171V35.65C145.171 36.52 145.361 37.14 145.741 37.51C146.121 37.88 146.611 38.06 147.211 38.06C147.551 38.06 147.851 38 148.091 37.88C148.331 37.76 148.541 37.6 148.721 37.38L148.851 38H150.101V32.86ZM152.731 36.29H151.391C151.411 36.84 151.651 37.27 152.101 37.59C152.541 37.91 153.121 38.06 153.841 38.06C154.301 38.06 154.701 38 155.051 37.86C155.401 37.72 155.671 37.53 155.871 37.27C156.071 37.02 156.171 36.73 156.171 36.39C156.171 35.87 155.981 35.5 155.611 35.28C155.241 35.06 154.711 34.91 154.021 34.83C153.691 34.8 153.461 34.77 153.321 34.74C153.181 34.72 153.061 34.67 152.981 34.61C152.891 34.55 152.851 34.46 152.851 34.34C152.851 34.18 152.931 34.04 153.091 33.94C153.251 33.84 153.471 33.79 153.741 33.79C154.021 33.79 154.261 33.86 154.441 33.98C154.621 34.1 154.731 34.26 154.751 34.45H156.091C156.051 33.93 155.821 33.53 155.391 33.23C154.961 32.94 154.401 32.79 153.701 32.78C153.261 32.78 152.881 32.85 152.551 32.99C152.211 33.13 151.951 33.33 151.771 33.59C151.591 33.85 151.501 34.14 151.501 34.47C151.501 34.81 151.591 35.07 151.771 35.27C151.951 35.47 152.191 35.62 152.491 35.71C152.791 35.81 153.161 35.88 153.621 35.94C153.951 35.98 154.191 36.02 154.341 36.05C154.481 36.08 154.601 36.13 154.681 36.19C154.761 36.26 154.801 36.36 154.801 36.49C154.801 36.67 154.711 36.81 154.541 36.91C154.361 37.01 154.131 37.05 153.831 37.05C153.511 37.05 153.261 36.98 153.061 36.84C152.861 36.7 152.751 36.52 152.731 36.29ZM165.522 36.81H165.362C165.242 36.81 165.162 36.79 165.112 36.74C165.052 36.7 165.032 36.61 165.032 36.48V34.67C165.032 34.07 164.832 33.6 164.432 33.28C164.032 32.96 163.472 32.8 162.752 32.8C162.052 32.8 161.502 32.95 161.082 33.24C160.662 33.53 160.422 33.94 160.382 34.46H161.742C161.772 34.27 161.872 34.12 162.042 34C162.202 33.89 162.422 33.83 162.682 33.83C162.972 33.83 163.202 33.9 163.382 34.04C163.552 34.18 163.642 34.36 163.642 34.59V34.84H162.622C161.852 34.84 161.262 34.99 160.862 35.29C160.462 35.59 160.262 36.01 160.262 36.55C160.262 37.03 160.432 37.41 160.782 37.67C161.132 37.93 161.592 38.06 162.172 38.06C162.552 38.06 162.882 37.99 163.162 37.83C163.432 37.68 163.662 37.46 163.852 37.16C163.832 37.72 164.152 38 164.802 38H165.522V36.81ZM163.642 35.78V35.88C163.632 36.24 163.522 36.52 163.312 36.73C163.092 36.94 162.802 37.04 162.442 37.04C162.202 37.04 162.022 36.99 161.882 36.88C161.742 36.78 161.682 36.63 161.682 36.45C161.682 36.24 161.762 36.08 161.922 35.96C162.082 35.84 162.312 35.78 162.612 35.78H163.642ZM171.707 32.86H170.467L170.347 33.57C169.947 33.05 169.417 32.79 168.747 32.79C168.287 32.79 167.877 32.9 167.517 33.11C167.157 33.33 166.867 33.63 166.667 34.02C166.467 34.42 166.367 34.87 166.367 35.38C166.367 35.9 166.467 36.36 166.667 36.75C166.867 37.14 167.157 37.44 167.517 37.65C167.877 37.87 168.277 37.97 168.737 37.97C169.417 37.97 169.947 37.74 170.327 37.26V37.8C170.327 38.2 170.217 38.49 169.997 38.69C169.777 38.89 169.467 38.99 169.067 38.99C168.747 38.99 168.487 38.93 168.287 38.79C168.087 38.66 167.957 38.47 167.897 38.22H166.477C166.507 38.81 166.747 39.26 167.197 39.58C167.637 39.9 168.227 40.06 168.957 40.06C169.897 40.06 170.587 39.86 171.037 39.46C171.477 39.06 171.707 38.53 171.707 37.85V32.86ZM169.977 36.44C169.747 36.71 169.447 36.84 169.067 36.84C168.687 36.84 168.377 36.71 168.147 36.44C167.917 36.18 167.807 35.83 167.807 35.39C167.807 34.96 167.917 34.61 168.147 34.34C168.377 34.07 168.687 33.93 169.067 33.93C169.447 33.93 169.747 34.07 169.977 34.34C170.197 34.62 170.317 34.97 170.317 35.4C170.317 35.83 170.197 36.18 169.977 36.44ZM173.31 34.05C173.09 34.45 172.99 34.91 172.99 35.44C172.99 35.97 173.1 36.43 173.32 36.83C173.54 37.23 173.86 37.53 174.28 37.74C174.7 37.96 175.19 38.06 175.77 38.06C176.21 38.06 176.6 37.99 176.94 37.83C177.28 37.67 177.55 37.46 177.76 37.18C177.96 36.91 178.09 36.6 178.15 36.26H176.76C176.7 36.5 176.57 36.69 176.38 36.81C176.19 36.93 175.95 36.99 175.67 36.99C175.31 36.99 175.02 36.89 174.82 36.67C174.61 36.46 174.49 36.17 174.46 35.79V35.75H178.19C178.21 35.61 178.23 35.45 178.23 35.27C178.22 34.77 178.1 34.34 177.88 33.97C177.66 33.6 177.35 33.31 176.95 33.11C176.55 32.91 176.1 32.8 175.58 32.8C175.06 32.8 174.61 32.91 174.22 33.13C173.83 33.35 173.53 33.65 173.31 34.05ZM176.82 34.83H174.49C174.53 34.53 174.65 34.3 174.86 34.12C175.07 33.94 175.33 33.85 175.64 33.85C175.96 33.85 176.22 33.94 176.43 34.11C176.64 34.28 176.77 34.52 176.82 34.83ZM183.931 33.36C183.541 32.99 183.051 32.8 182.451 32.8C182.071 32.8 181.761 32.87 181.511 32.99C181.251 33.11 181.041 33.28 180.861 33.5L180.731 32.86H179.501V38H180.911V35.37C180.911 34.93 181.011 34.58 181.211 34.33C181.411 34.09 181.691 33.96 182.061 33.96C182.751 33.96 183.101 34.41 183.101 35.29V38H184.511V35.21C184.511 34.35 184.311 33.74 183.931 33.36ZM190.039 37.53C190.479 37.17 190.739 36.68 190.839 36.05H189.389C189.329 36.32 189.209 36.53 189.029 36.68C188.849 36.84 188.619 36.91 188.349 36.91C187.979 36.91 187.689 36.78 187.469 36.5C187.249 36.23 187.139 35.87 187.139 35.43C187.139 34.99 187.249 34.64 187.469 34.36C187.689 34.09 187.979 33.95 188.349 33.95C188.609 33.95 188.839 34.03 189.019 34.18C189.199 34.33 189.319 34.53 189.379 34.78H190.839C190.739 34.16 190.469 33.68 190.039 33.33C189.599 32.98 189.039 32.8 188.359 32.8C187.819 32.8 187.349 32.91 186.949 33.13C186.549 33.35 186.239 33.65 186.019 34.05C185.799 34.45 185.699 34.91 185.699 35.43C185.699 35.95 185.799 36.41 186.019 36.81C186.239 37.21 186.549 37.52 186.949 37.74C187.349 37.96 187.809 38.06 188.349 38.06C189.039 38.06 189.599 37.89 190.039 37.53ZM192.868 32.86H191.368L193.348 38.03L193.218 38.37C193.138 38.55 193.068 38.66 192.988 38.72C192.908 38.78 192.778 38.81 192.598 38.81H191.818V40H193.188C193.448 40 193.658 39.96 193.818 39.87C193.978 39.78 194.118 39.65 194.228 39.47C194.328 39.29 194.448 39.05 194.568 38.73L196.848 32.86H195.338L194.118 36.55L192.868 32.86Z" fill="#333333"/>
</svg>
