<svg width="56" height="56" viewBox="0 0 56 56" fill="none" xmlns="http://www.w3.org/2000/svg">
<rect width="56" height="56" rx="14" fill="#1263AD" fill-opacity="0.1"/>
<path d="M23.4374 32.208C24.9734 30.928 26.1974 29.864 27.1094 29.016C28.0214 28.152 28.7814 27.256 29.3894 26.328C29.9974 25.4 30.3014 24.488 30.3014 23.592C30.3014 22.776 30.1094 22.136 29.7254 21.672C29.3414 21.208 28.7494 20.976 27.9494 20.976C27.1494 20.976 26.5334 21.248 26.1014 21.792C25.6694 22.32 25.4454 23.048 25.4294 23.976H22.1654C22.2294 22.056 22.7974 20.6 23.8694 19.608C24.9574 18.616 26.3334 18.12 27.9974 18.12C29.8214 18.12 31.2214 18.608 32.1974 19.584C33.1734 20.544 33.6614 21.816 33.6614 23.4C33.6614 24.648 33.3254 25.84 32.6534 26.976C31.9814 28.112 31.2134 29.104 30.3494 29.952C29.4854 30.784 28.3574 31.792 26.9654 32.976H34.0454V35.76H22.1894V33.264L23.4374 32.208Z" fill="#1263AD"/>
</svg>
