<svg width="120" height="24" viewBox="0 0 120 24" fill="none" xmlns="http://www.w3.org/2000/svg">
<path d="M17.4979 21.9194C17.3749 21.9224 17.2529 21.8914 17.1459 21.8294L12.0079 19.1234L7.48387 21.5594C6.74587 21.9594 5.82187 21.6854 5.42187 20.9464C5.41687 20.9374 5.41187 20.9284 5.40687 20.9184C5.24987 20.6094 5.19487 20.2604 5.24887 19.9184L6.12887 14.7244L2.45087 11.0004C1.84987 10.3804 1.84987 9.39438 2.45087 8.77338C2.68487 8.52738 2.99487 8.36838 3.33087 8.32238L8.37387 7.55638L10.6169 2.88338C10.9659 2.12338 11.8649 1.78938 12.6259 2.13838C12.9559 2.28938 13.2199 2.55438 13.3709 2.88338L15.6239 7.57238L20.6839 8.34738C21.0929 8.40838 21.4599 8.63438 21.6999 8.97138C22.1479 9.61538 22.0799 10.4854 21.5379 11.0524L17.8769 14.7324L18.3869 17.5314C18.4579 17.9514 18.1809 18.3524 17.7619 18.4314C17.3499 18.5054 16.9559 18.2314 16.8819 17.8184L16.3629 15.0194C16.2759 14.5064 16.4389 13.9824 16.8029 13.6114L20.4729 9.90538L15.4129 9.12038C14.8999 9.03738 14.4649 8.69738 14.2599 8.22038L12.0079 3.55138L9.72787 8.29438C9.52287 8.77238 9.08787 9.11138 8.57487 9.19438L3.53187 9.96038L7.17487 13.6604C7.53787 14.0254 7.70087 14.5424 7.61487 15.0494L6.73487 20.2434L11.2579 17.8174C11.7059 17.5654 12.2529 17.5654 12.7009 17.8174L17.8319 20.5234C18.1449 20.6944 18.3039 21.0554 18.2189 21.4024C18.1409 21.7494 17.8349 21.9964 17.4799 22.0024L17.4979 21.9194Z" fill="#1263AD"/>
<path d="M41.4979 21.9194C41.3749 21.9224 41.2529 21.8914 41.1459 21.8294L36.0079 19.1234L31.4839 21.5594C30.7459 21.9594 29.8219 21.6854 29.4219 20.9464C29.4169 20.9374 29.4119 20.9284 29.4069 20.9184C29.2499 20.6094 29.1949 20.2604 29.2489 19.9184L30.1289 14.7244L26.4509 11.0004C25.8499 10.3804 25.8499 9.39438 26.4509 8.77338C26.6849 8.52738 26.9949 8.36838 27.3309 8.32238L32.3739 7.55638L34.6169 2.88338C34.9659 2.12338 35.8649 1.78938 36.6259 2.13838C36.9559 2.28938 37.2199 2.55438 37.3709 2.88338L39.6239 7.57238L44.6839 8.34738C45.0929 8.40838 45.4599 8.63438 45.6999 8.97138C46.1479 9.61538 46.0799 10.4854 45.5379 11.0524L41.8769 14.7324L42.3869 17.5314C42.4579 17.9514 42.1809 18.3524 41.7619 18.4314C41.3499 18.5054 40.9559 18.2314 40.8819 17.8184L40.3629 15.0194C40.2759 14.5064 40.4389 13.9824 40.8029 13.6114L44.4729 9.90538L39.4129 9.12038C38.8999 9.03738 38.4649 8.69738 38.2599 8.22038L36.0079 3.55138L33.7279 8.29438C33.5229 8.77238 33.0879 9.11138 32.5749 9.19438L27.5319 9.96038L31.1749 13.6604C31.5379 14.0254 31.7009 14.5424 31.6149 15.0494L30.7349 20.2434L35.2579 17.8174C35.7059 17.5654 36.2529 17.5654 36.7009 17.8174L41.8319 20.5234C42.1449 20.6944 42.3039 21.0554 42.2189 21.4024C42.1409 21.7494 41.8349 21.9964 41.4799 22.0024L41.4979 21.9194Z" fill="#1263AD"/>
<path d="M65.4979 21.9194C65.3749 21.9224 65.2529 21.8914 65.1459 21.8294L60.0079 19.1234L55.4839 21.5594C54.7459 21.9594 53.8219 21.6854 53.4219 20.9464C53.4169 20.9374 53.4119 20.9284 53.4069 20.9184C53.2499 20.6094 53.1949 20.2604 53.2489 19.9184L54.1289 14.7244L50.4509 11.0004C49.8499 10.3804 49.8499 9.39438 50.4509 8.77338C50.6849 8.52738 50.9949 8.36838 51.3309 8.32238L56.3739 7.55638L58.6169 2.88338C58.9659 2.12338 59.8649 1.78938 60.6259 2.13838C60.9559 2.28938 61.2199 2.55438 61.3709 2.88338L63.6239 7.57238L68.6839 8.34738C69.0929 8.40838 69.4599 8.63438 69.6999 8.97138C70.1479 9.61538 70.0799 10.4854 69.5379 11.0524L65.8769 14.7324L66.3869 17.5314C66.4579 17.9514 66.1809 18.3524 65.7619 18.4314C65.3499 18.5054 64.9559 18.2314 64.8819 17.8184L64.3629 15.0194C64.2759 14.5064 64.4389 13.9824 64.8029 13.6114L68.4729 9.90538L63.4129 9.12038C62.8999 9.03738 62.4649 8.69738 62.2599 8.22038L60.0079 3.55138L57.7279 8.29438C57.5229 8.77238 57.0879 9.11138 56.5749 9.19438L51.5319 9.96038L55.1749 13.6604C55.5379 14.0254 55.7009 14.5424 55.6149 15.0494L54.7349 20.2434L59.2579 17.8174C59.7059 17.5654 60.2529 17.5654 60.7009 17.8174L65.8319 20.5234C66.1449 20.6944 66.3039 21.0554 66.2189 21.4024C66.1409 21.7494 65.8349 21.9964 65.4799 22.0024L65.4979 21.9194Z" fill="#1263AD"/>
<path d="M89.4979 21.9194C89.3749 21.9224 89.2529 21.8914 89.1459 21.8294L84.0079 19.1234L79.4839 21.5594C78.7459 21.9594 77.8219 21.6854 77.4219 20.9464C77.4169 20.9374 77.4119 20.9284 77.4069 20.9184C77.2499 20.6094 77.1949 20.2604 77.2489 19.9184L78.1289 14.7244L74.4509 11.0004C73.8499 10.3804 73.8499 9.39438 74.4509 8.77338C74.6849 8.52738 74.9949 8.36838 75.3309 8.32238L80.3739 7.55638L82.6169 2.88338C82.9659 2.12338 83.8649 1.78938 84.6259 2.13838C84.9559 2.28938 85.2199 2.55438 85.3709 2.88338L87.6239 7.57238L92.6839 8.34738C93.0929 8.40838 93.4599 8.63438 93.6999 8.97138C94.1479 9.61538 94.0799 10.4854 93.5379 11.0524L89.8769 14.7324L90.3869 17.5314C90.4579 17.9514 90.1809 18.3524 89.7619 18.4314C89.3499 18.5054 88.9559 18.2314 88.8819 17.8184L88.3629 15.0194C88.2759 14.5064 88.4389 13.9824 88.8029 13.6114L92.4729 9.90538L87.4129 9.12038C86.8999 9.03738 86.4649 8.69738 86.2599 8.22038L84.0079 3.55138L81.7279 8.29438C81.5229 8.77238 81.0879 9.11138 80.5749 9.19438L75.5319 9.96038L79.1749 13.6604C79.5379 14.0254 79.7009 14.5424 79.6149 15.0494L78.7349 20.2434L83.2579 17.8174C83.7059 17.5654 84.2529 17.5654 84.7009 17.8174L89.8319 20.5234C90.1449 20.6944 90.3039 21.0554 90.2189 21.4024C90.1409 21.7494 89.8349 21.9964 89.4799 22.0024L89.4979 21.9194Z" fill="#1263AD"/>
<path d="M113.498 21.9194C113.375 21.9224 113.253 21.8914 113.146 21.8294L108.008 19.1234L103.484 21.5594C102.746 21.9594 101.822 21.6854 101.422 20.9464C101.417 20.9374 101.412 20.9284 101.407 20.9184C101.25 20.6094 101.195 20.2604 101.249 19.9184L102.129 14.7244L98.4509 11.0004C97.8499 10.3804 97.8499 9.39438 98.4509 8.77338C98.6849 8.52738 98.9949 8.36838 99.3309 8.32238L104.374 7.55638L106.617 2.88338C106.966 2.12338 107.865 1.78938 108.626 2.13838C108.956 2.28938 109.22 2.55438 109.371 2.88338L111.624 7.57238L116.684 8.34738C117.093 8.40838 117.46 8.63438 117.7 8.97138C118.148 9.61538 118.08 10.4854 117.538 11.0524L113.877 14.7324L114.387 17.5314C114.458 17.9514 114.181 18.3524 113.762 18.4314C113.35 18.5054 112.956 18.2314 112.882 17.8184L112.363 15.0194C112.276 14.5064 112.439 13.9824 112.803 13.6114L116.473 9.90538L111.413 9.12038C110.9 9.03738 110.465 8.69738 110.26 8.22038L108.008 3.55138L105.728 8.29438C105.523 8.77238 105.088 9.11138 104.575 9.19438L99.5319 9.96038L103.175 13.6604C103.538 14.0254 103.701 14.5424 103.615 15.0494L102.735 20.2434L107.258 17.8174C107.706 17.5654 108.253 17.5654 108.701 17.8174L113.832 20.5234C114.145 20.6944 114.304 21.0554 114.219 21.4024C114.141 21.7494 113.835 21.9964 113.48 22.0024L113.498 21.9194Z" fill="#1263AD"/>
</svg>
