<svg width="56" height="56" viewBox="0 0 56 56" fill="none" xmlns="http://www.w3.org/2000/svg">
<rect width="56" height="56" rx="14" fill="#1263AD" fill-opacity="0.1"/>
<path d="M22.1364 23.112C22.2164 21.512 22.7764 20.28 23.8164 19.416C24.8724 18.536 26.2564 18.096 27.9684 18.096C29.1364 18.096 30.1364 18.304 30.9684 18.72C31.8004 19.12 32.4244 19.672 32.8404 20.376C33.2724 21.064 33.4884 21.848 33.4884 22.728C33.4884 23.736 33.2244 24.592 32.6964 25.296C32.1844 25.984 31.5684 26.448 30.8484 26.688V26.784C31.7764 27.072 32.4964 27.584 33.0084 28.32C33.5364 29.056 33.8004 30 33.8004 31.152C33.8004 32.112 33.5764 32.968 33.1284 33.72C32.6964 34.472 32.0484 35.064 31.1844 35.496C30.3364 35.912 29.3124 36.12 28.1124 36.12C26.3044 36.12 24.8324 35.664 23.6964 34.752C22.5604 33.84 21.9604 32.496 21.8964 30.72H25.1604C25.1924 31.504 25.4564 32.136 25.9524 32.616C26.4644 33.08 27.1604 33.312 28.0404 33.312C28.8564 33.312 29.4804 33.088 29.9124 32.64C30.3604 32.176 30.5844 31.584 30.5844 30.864C30.5844 29.904 30.2804 29.216 29.6724 28.8C29.0644 28.384 28.1204 28.176 26.8404 28.176H26.1444V25.416H26.8404C29.1124 25.416 30.2484 24.656 30.2484 23.136C30.2484 22.448 30.0404 21.912 29.6244 21.528C29.2244 21.144 28.6404 20.952 27.8724 20.952C27.1204 20.952 26.5364 21.16 26.1204 21.576C25.7204 21.976 25.4884 22.488 25.4244 23.112H22.1364Z" fill="#1263AD"/>
</svg>
